<mxfile host="app.diagrams.net" modified="2020-10-12T08:39:17.395Z" agent="5.0 (Windows NT 10.0; Win64; x64) AppleWebKit/537.36 (KHTML, like Gecko) Chrome/86.0.4240.75 Safari/537.36 Edg/86.0.622.38" etag="VlwMnfGLEI-0aJzruzfY" version="13.7.9" type="github" pages="12">
  <diagram id="-KijpRxHXJyzKJAgmz0o" name="Master (start)">
    <mxGraphModel dx="1422" dy="762" grid="1" gridSize="10" guides="1" tooltips="1" connect="1" arrows="1" fold="1" page="1" pageScale="1" pageWidth="827" pageHeight="1169" math="0" shadow="0">
      <root>
        <mxCell id="IWdYEwGl2BrSMSgd-oNs-0" />
        <mxCell id="IWdYEwGl2BrSMSgd-oNs-1" parent="IWdYEwGl2BrSMSgd-oNs-0" />
        <mxCell id="YBu7y85ZySVUvr6pQ6AH-0" value="" style="rounded=0;whiteSpace=wrap;html=1;strokeColor=#000000;fillColor=#ffffff;fontSize=20;movable=0;resizable=0;rotatable=0;deletable=0;editable=0;connectable=0;" vertex="1" parent="IWdYEwGl2BrSMSgd-oNs-1">
          <mxGeometry x="10" y="20" width="800" height="490" as="geometry" />
        </mxCell>
        <mxCell id="YBu7y85ZySVUvr6pQ6AH-1" value="&lt;font style=&quot;font-size: 32px&quot;&gt;Quizzer&lt;/font&gt;" style="text;html=1;resizable=0;autosize=1;align=center;verticalAlign=middle;points=[];fillColor=none;strokeColor=none;rounded=0;fontSize=20;" vertex="1" parent="IWdYEwGl2BrSMSgd-oNs-1">
          <mxGeometry x="345" y="170" width="130" height="30" as="geometry" />
        </mxCell>
        <mxCell id="Ynzv6NYAwO7OO26cOxF9-0" value="&lt;font style=&quot;font-size: 16px&quot;&gt;Quiz starten...&lt;/font&gt;" style="rounded=1;html=1;shadow=0;dashed=0;whiteSpace=wrap;fontSize=10;fillColor=#666666;align=center;strokeColor=#4D4D4D;fontColor=#ffffff;" vertex="1" parent="IWdYEwGl2BrSMSgd-oNs-1">
          <mxGeometry x="285" y="240" width="250" height="40" as="geometry" />
        </mxCell>
      </root>
    </mxGraphModel>
  </diagram>
  <diagram id="KTLLFIGtmGlW5NRZeYfU" name="Master (applications)">
    <mxGraphModel dx="1422" dy="762" grid="1" gridSize="10" guides="1" tooltips="1" connect="1" arrows="1" fold="1" page="1" pageScale="1" pageWidth="827" pageHeight="1169" math="0" shadow="0">
      <root>
        <mxCell id="wY2zRXRPOPV4hfavQqGO-0" />
        <mxCell id="wY2zRXRPOPV4hfavQqGO-1" parent="wY2zRXRPOPV4hfavQqGO-0" />
        <mxCell id="wY2zRXRPOPV4hfavQqGO-2" value="" style="rounded=0;whiteSpace=wrap;html=1;strokeColor=#000000;fillColor=#ffffff;fontSize=20;movable=0;resizable=0;rotatable=0;deletable=0;editable=0;connectable=0;" vertex="1" parent="wY2zRXRPOPV4hfavQqGO-1">
          <mxGeometry x="10" y="20" width="800" height="490" as="geometry" />
        </mxCell>
        <mxCell id="wY2zRXRPOPV4hfavQqGO-3" value="&lt;font style=&quot;font-size: 32px&quot;&gt;Wachten op de teams...&lt;/font&gt;" style="text;html=1;resizable=0;autosize=1;align=center;verticalAlign=middle;points=[];fillColor=none;strokeColor=none;rounded=0;fontSize=20;" vertex="1" parent="wY2zRXRPOPV4hfavQqGO-1">
          <mxGeometry x="235" y="70" width="350" height="30" as="geometry" />
        </mxCell>
        <mxCell id="pNdIQz8JmNYr3JAQAk3R-2" value="" style="group" vertex="1" connectable="0" parent="wY2zRXRPOPV4hfavQqGO-1">
          <mxGeometry x="24" y="180" width="250" height="162" as="geometry" />
        </mxCell>
        <mxCell id="W8T_we-C8f5PDUzUREx--0" value="" style="rounded=0;whiteSpace=wrap;html=1;strokeColor=#000000;fontSize=18;" vertex="1" parent="pNdIQz8JmNYr3JAQAk3R-2">
          <mxGeometry width="250" height="162" as="geometry" />
        </mxCell>
        <mxCell id="W8T_we-C8f5PDUzUREx--1" value="Team 1" style="text;html=1;resizable=0;autosize=1;align=center;verticalAlign=middle;points=[];fillColor=none;strokeColor=none;rounded=0;fontSize=18;" vertex="1" parent="pNdIQz8JmNYr3JAQAk3R-2">
          <mxGeometry x="90" y="12" width="70" height="30" as="geometry" />
        </mxCell>
        <mxCell id="W8T_we-C8f5PDUzUREx--2" value="" style="verticalLabelPosition=bottom;verticalAlign=top;html=1;shape=mxgraph.basic.tick;strokeColor=#000000;fillColor=#ffffff;fontSize=18;" vertex="1" parent="pNdIQz8JmNYr3JAQAk3R-2">
          <mxGeometry x="35.17" y="69.25" width="54.83" height="64.5" as="geometry" />
        </mxCell>
        <mxCell id="pNdIQz8JmNYr3JAQAk3R-0" value="" style="shape=cross;whiteSpace=wrap;html=1;strokeColor=#000000;fillColor=#ffffff;fontSize=18;rotation=45;" vertex="1" parent="pNdIQz8JmNYr3JAQAk3R-2">
          <mxGeometry x="160" y="68.5" width="66" height="66" as="geometry" />
        </mxCell>
        <mxCell id="pNdIQz8JmNYr3JAQAk3R-1" value="" style="whiteSpace=wrap;html=1;strokeColor=#000000;fillColor=#ffffff;fontSize=20;" vertex="1" parent="pNdIQz8JmNYr3JAQAk3R-2">
          <mxGeometry x="120" y="56" width="10" height="90" as="geometry" />
        </mxCell>
        <mxCell id="pNdIQz8JmNYr3JAQAk3R-3" value="" style="group" vertex="1" connectable="0" parent="wY2zRXRPOPV4hfavQqGO-1">
          <mxGeometry x="283" y="180" width="250" height="162" as="geometry" />
        </mxCell>
        <mxCell id="pNdIQz8JmNYr3JAQAk3R-4" value="" style="rounded=0;whiteSpace=wrap;html=1;strokeColor=#000000;fontSize=18;" vertex="1" parent="pNdIQz8JmNYr3JAQAk3R-3">
          <mxGeometry width="250" height="162" as="geometry" />
        </mxCell>
        <mxCell id="pNdIQz8JmNYr3JAQAk3R-5" value="Team 2" style="text;html=1;resizable=0;autosize=1;align=center;verticalAlign=middle;points=[];fillColor=none;strokeColor=none;rounded=0;fontSize=18;" vertex="1" parent="pNdIQz8JmNYr3JAQAk3R-3">
          <mxGeometry x="90" y="12" width="70" height="30" as="geometry" />
        </mxCell>
        <mxCell id="pNdIQz8JmNYr3JAQAk3R-6" value="" style="verticalLabelPosition=bottom;verticalAlign=top;html=1;shape=mxgraph.basic.tick;strokeColor=#000000;fillColor=#ffffff;fontSize=18;" vertex="1" parent="pNdIQz8JmNYr3JAQAk3R-3">
          <mxGeometry x="97.58" y="69.25" width="54.83" height="64.5" as="geometry" />
        </mxCell>
        <mxCell id="pNdIQz8JmNYr3JAQAk3R-9" value="" style="group" vertex="1" connectable="0" parent="wY2zRXRPOPV4hfavQqGO-1">
          <mxGeometry x="544" y="180" width="250" height="162" as="geometry" />
        </mxCell>
        <mxCell id="pNdIQz8JmNYr3JAQAk3R-10" value="" style="rounded=0;whiteSpace=wrap;html=1;strokeColor=#000000;fontSize=18;" vertex="1" parent="pNdIQz8JmNYr3JAQAk3R-9">
          <mxGeometry width="250" height="162" as="geometry" />
        </mxCell>
        <mxCell id="pNdIQz8JmNYr3JAQAk3R-11" value="Team 3" style="text;html=1;resizable=0;autosize=1;align=center;verticalAlign=middle;points=[];fillColor=none;strokeColor=none;rounded=0;fontSize=18;" vertex="1" parent="pNdIQz8JmNYr3JAQAk3R-9">
          <mxGeometry x="90" y="12" width="70" height="30" as="geometry" />
        </mxCell>
        <mxCell id="pNdIQz8JmNYr3JAQAk3R-12" value="" style="verticalLabelPosition=bottom;verticalAlign=top;html=1;shape=mxgraph.basic.tick;strokeColor=#000000;fillColor=#ffffff;fontSize=18;" vertex="1" parent="pNdIQz8JmNYr3JAQAk3R-9">
          <mxGeometry x="35.17" y="69.25" width="54.83" height="64.5" as="geometry" />
        </mxCell>
        <mxCell id="pNdIQz8JmNYr3JAQAk3R-13" value="" style="shape=cross;whiteSpace=wrap;html=1;strokeColor=#000000;fillColor=#ffffff;fontSize=18;rotation=45;" vertex="1" parent="pNdIQz8JmNYr3JAQAk3R-9">
          <mxGeometry x="160" y="68.5" width="66" height="66" as="geometry" />
        </mxCell>
        <mxCell id="pNdIQz8JmNYr3JAQAk3R-14" value="" style="whiteSpace=wrap;html=1;strokeColor=#000000;fillColor=#ffffff;fontSize=20;" vertex="1" parent="pNdIQz8JmNYr3JAQAk3R-9">
          <mxGeometry x="120" y="56" width="10" height="90" as="geometry" />
        </mxCell>
        <mxCell id="XOZID9NAbzqJ-5b4o50c-0" value="&lt;font style=&quot;font-size: 16px&quot;&gt;&lt;b&gt;Start Quiz&lt;/b&gt;&lt;br&gt;&lt;i&gt;3 Teams&lt;/i&gt;&lt;br&gt;&lt;/font&gt;" style="rounded=1;html=1;shadow=0;dashed=0;whiteSpace=wrap;fontSize=10;fillColor=#666666;align=center;strokeColor=#4D4D4D;fontColor=#ffffff;" vertex="1" parent="wY2zRXRPOPV4hfavQqGO-1">
          <mxGeometry x="283" y="400" width="250" height="60" as="geometry" />
        </mxCell>
      </root>
    </mxGraphModel>
  </diagram>
  <diagram id="9akiY5WUqqkPRU1pZ9re" name="Team (register)">
    <mxGraphModel dx="1422" dy="762" grid="1" gridSize="10" guides="1" tooltips="1" connect="1" arrows="1" fold="1" page="1" pageScale="1" pageWidth="827" pageHeight="1169" math="0" shadow="0">
      <root>
        <mxCell id="sNGwVfd29EBnu8Hymf_--0" />
        <mxCell id="sNGwVfd29EBnu8Hymf_--1" parent="sNGwVfd29EBnu8Hymf_--0" />
        <mxCell id="sNGwVfd29EBnu8Hymf_--3" value="" style="rounded=0;whiteSpace=wrap;html=1;strokeColor=#000000;fillColor=#ffffff;fontSize=18;" vertex="1" parent="sNGwVfd29EBnu8Hymf_--1">
          <mxGeometry x="222" y="40" width="383.18" height="650" as="geometry" />
        </mxCell>
        <mxCell id="XQDxJVr0Nn0b2sAnJl80-0" value="" style="rounded=0;whiteSpace=wrap;html=1;strokeColor=#000000;fillColor=#ffffff;fontSize=18;" vertex="1" parent="sNGwVfd29EBnu8Hymf_--1">
          <mxGeometry x="264" y="230" width="300" height="50" as="geometry" />
        </mxCell>
        <mxCell id="XQDxJVr0Nn0b2sAnJl80-1" value="&lt;font style=&quot;font-size: 32px&quot;&gt;Team naam&lt;/font&gt;" style="text;html=1;resizable=0;autosize=1;align=center;verticalAlign=middle;points=[];fillColor=none;strokeColor=none;rounded=0;fontSize=18;" vertex="1" parent="sNGwVfd29EBnu8Hymf_--1">
          <mxGeometry x="324" y="170" width="180" height="30" as="geometry" />
        </mxCell>
        <mxCell id="XQDxJVr0Nn0b2sAnJl80-2" value="&lt;font style=&quot;font-size: 16px&quot;&gt;Versturen&lt;/font&gt;" style="rounded=1;html=1;shadow=0;dashed=0;whiteSpace=wrap;fontSize=10;fillColor=#666666;align=center;strokeColor=#4D4D4D;fontColor=#ffffff;" vertex="1" parent="sNGwVfd29EBnu8Hymf_--1">
          <mxGeometry x="289" y="320" width="250" height="40" as="geometry" />
        </mxCell>
        <mxCell id="XQDxJVr0Nn0b2sAnJl80-3" value="De Timmies" style="text;html=1;resizable=0;autosize=1;align=center;verticalAlign=middle;points=[];fillColor=none;strokeColor=none;rounded=0;fontSize=18;" vertex="1" parent="sNGwVfd29EBnu8Hymf_--1">
          <mxGeometry x="270" y="240" width="110" height="30" as="geometry" />
        </mxCell>
      </root>
    </mxGraphModel>
  </diagram>
  <diagram id="G-D62T9iONGmtOQ1daMI" name="Master (category select)">
    <mxGraphModel dx="1422" dy="762" grid="1" gridSize="10" guides="1" tooltips="1" connect="1" arrows="1" fold="1" page="1" pageScale="1" pageWidth="827" pageHeight="1169" math="0" shadow="0">
      <root>
        <mxCell id="yaZ0OLRwCMexfej6j701-0" />
        <mxCell id="yaZ0OLRwCMexfej6j701-1" parent="yaZ0OLRwCMexfej6j701-0" />
        <mxCell id="1WQADxzkZNzMC15hlL7e-0" value="" style="rounded=0;whiteSpace=wrap;html=1;strokeColor=#000000;fillColor=#ffffff;fontSize=20;movable=0;resizable=0;rotatable=0;deletable=0;editable=0;connectable=0;" vertex="1" parent="yaZ0OLRwCMexfej6j701-1">
          <mxGeometry x="10" y="20" width="800" height="490" as="geometry" />
        </mxCell>
        <mxCell id="1WQADxzkZNzMC15hlL7e-1" value="&lt;font style=&quot;font-size: 32px&quot;&gt;Kies 3 categorieën en 12 vragen&lt;/font&gt;" style="text;html=1;resizable=0;autosize=1;align=center;verticalAlign=middle;points=[];fillColor=none;strokeColor=none;rounded=0;fontSize=20;" vertex="1" parent="yaZ0OLRwCMexfej6j701-1">
          <mxGeometry x="170" y="47" width="480" height="30" as="geometry" />
        </mxCell>
        <mxCell id="fok5GjH3rydquGgXDOQe-6" value="" style="group;container=1;" vertex="1" connectable="0" parent="yaZ0OLRwCMexfej6j701-1">
          <mxGeometry x="285" y="100" width="250" height="100" as="geometry" />
        </mxCell>
        <mxCell id="fok5GjH3rydquGgXDOQe-7" value="" style="rounded=0;whiteSpace=wrap;html=1;strokeColor=#000000;fontSize=18;" vertex="1" parent="fok5GjH3rydquGgXDOQe-6">
          <mxGeometry width="250" height="100" as="geometry" />
        </mxCell>
        <mxCell id="QXgPABeYLbt02TVLiIt6-4" value="Categorie&amp;nbsp;" style="text;html=1;resizable=0;autosize=1;align=center;verticalAlign=middle;points=[];fillColor=none;strokeColor=none;rounded=0;fontSize=21;" vertex="1" parent="fok5GjH3rydquGgXDOQe-6">
          <mxGeometry x="70" y="35" width="110" height="30" as="geometry" />
        </mxCell>
        <mxCell id="XI8v_eh9SJo8sQ7ZiS02-0" value="&lt;font style=&quot;font-size: 16px&quot;&gt;Ronde starten&lt;/font&gt;" style="rounded=1;html=1;shadow=0;dashed=0;whiteSpace=wrap;fontSize=10;fillColor=#666666;align=center;strokeColor=#4D4D4D;fontColor=#ffffff;" vertex="1" parent="yaZ0OLRwCMexfej6j701-1">
          <mxGeometry x="285" y="450" width="250" height="40" as="geometry" />
        </mxCell>
        <mxCell id="QXgPABeYLbt02TVLiIt6-6" value="" style="group;container=1;" vertex="1" connectable="0" parent="yaZ0OLRwCMexfej6j701-1">
          <mxGeometry x="550" y="100" width="250" height="100" as="geometry" />
        </mxCell>
        <mxCell id="QXgPABeYLbt02TVLiIt6-7" value="" style="rounded=0;whiteSpace=wrap;html=1;strokeColor=#000000;fontSize=18;" vertex="1" parent="QXgPABeYLbt02TVLiIt6-6">
          <mxGeometry width="250" height="100" as="geometry" />
        </mxCell>
        <mxCell id="QXgPABeYLbt02TVLiIt6-8" value="Categorie&amp;nbsp;" style="text;html=1;resizable=0;autosize=1;align=center;verticalAlign=middle;points=[];fillColor=none;strokeColor=none;rounded=0;fontSize=21;" vertex="1" parent="QXgPABeYLbt02TVLiIt6-6">
          <mxGeometry x="70" y="35" width="110" height="30" as="geometry" />
        </mxCell>
        <mxCell id="QXgPABeYLbt02TVLiIt6-9" value="" style="group;container=1;" vertex="1" connectable="0" parent="yaZ0OLRwCMexfej6j701-1">
          <mxGeometry x="20" y="100" width="250" height="100" as="geometry" />
        </mxCell>
        <mxCell id="QXgPABeYLbt02TVLiIt6-10" value="" style="rounded=0;whiteSpace=wrap;html=1;strokeColor=#000000;fontSize=18;" vertex="1" parent="QXgPABeYLbt02TVLiIt6-9">
          <mxGeometry width="250" height="100" as="geometry" />
        </mxCell>
        <mxCell id="QXgPABeYLbt02TVLiIt6-11" value="Categorie&amp;nbsp;" style="text;html=1;resizable=0;autosize=1;align=center;verticalAlign=middle;points=[];fillColor=none;strokeColor=none;rounded=0;fontSize=21;" vertex="1" parent="QXgPABeYLbt02TVLiIt6-9">
          <mxGeometry x="70" y="35" width="110" height="30" as="geometry" />
        </mxCell>
        <mxCell id="QXgPABeYLbt02TVLiIt6-12" value="" style="group;container=1;" vertex="1" connectable="0" parent="yaZ0OLRwCMexfej6j701-1">
          <mxGeometry x="20" y="210" width="250" height="100" as="geometry" />
        </mxCell>
        <mxCell id="QXgPABeYLbt02TVLiIt6-13" value="" style="rounded=0;whiteSpace=wrap;html=1;strokeColor=#000000;fontSize=18;" vertex="1" parent="QXgPABeYLbt02TVLiIt6-12">
          <mxGeometry width="250" height="100" as="geometry" />
        </mxCell>
        <mxCell id="QXgPABeYLbt02TVLiIt6-14" value="Categorie&amp;nbsp;" style="text;html=1;resizable=0;autosize=1;align=center;verticalAlign=middle;points=[];fillColor=none;strokeColor=none;rounded=0;fontSize=21;" vertex="1" parent="QXgPABeYLbt02TVLiIt6-12">
          <mxGeometry x="70" y="35" width="110" height="30" as="geometry" />
        </mxCell>
        <mxCell id="QXgPABeYLbt02TVLiIt6-15" value="" style="group;container=1;" vertex="1" connectable="0" parent="yaZ0OLRwCMexfej6j701-1">
          <mxGeometry x="289" y="210" width="250" height="100" as="geometry" />
        </mxCell>
        <mxCell id="QXgPABeYLbt02TVLiIt6-16" value="" style="rounded=0;whiteSpace=wrap;html=1;strokeColor=#000000;fontSize=18;" vertex="1" parent="QXgPABeYLbt02TVLiIt6-15">
          <mxGeometry width="250" height="100" as="geometry" />
        </mxCell>
        <mxCell id="QXgPABeYLbt02TVLiIt6-17" value="Categorie&amp;nbsp;" style="text;html=1;resizable=0;autosize=1;align=center;verticalAlign=middle;points=[];fillColor=none;strokeColor=none;rounded=0;fontSize=21;" vertex="1" parent="QXgPABeYLbt02TVLiIt6-15">
          <mxGeometry x="70" y="35" width="110" height="30" as="geometry" />
        </mxCell>
        <mxCell id="QXgPABeYLbt02TVLiIt6-18" value="" style="group;container=1;" vertex="1" connectable="0" parent="yaZ0OLRwCMexfej6j701-1">
          <mxGeometry x="550" y="210" width="250" height="100" as="geometry" />
        </mxCell>
        <mxCell id="QXgPABeYLbt02TVLiIt6-19" value="" style="rounded=0;whiteSpace=wrap;html=1;strokeColor=#000000;fontSize=18;" vertex="1" parent="QXgPABeYLbt02TVLiIt6-18">
          <mxGeometry width="250" height="100" as="geometry" />
        </mxCell>
        <mxCell id="QXgPABeYLbt02TVLiIt6-20" value="Categorie&amp;nbsp;" style="text;html=1;resizable=0;autosize=1;align=center;verticalAlign=middle;points=[];fillColor=none;strokeColor=none;rounded=0;fontSize=21;" vertex="1" parent="QXgPABeYLbt02TVLiIt6-18">
          <mxGeometry x="70" y="35" width="110" height="30" as="geometry" />
        </mxCell>
        <mxCell id="QXgPABeYLbt02TVLiIt6-21" value="" style="group;container=1;" vertex="1" connectable="0" parent="yaZ0OLRwCMexfej6j701-1">
          <mxGeometry x="430" y="320" width="250" height="100" as="geometry" />
        </mxCell>
        <mxCell id="QXgPABeYLbt02TVLiIt6-22" value="" style="rounded=0;whiteSpace=wrap;html=1;strokeColor=#000000;fontSize=18;" vertex="1" parent="QXgPABeYLbt02TVLiIt6-21">
          <mxGeometry width="250" height="100" as="geometry" />
        </mxCell>
        <mxCell id="QXgPABeYLbt02TVLiIt6-23" value="Categorie&amp;nbsp;" style="text;html=1;resizable=0;autosize=1;align=center;verticalAlign=middle;points=[];fillColor=none;strokeColor=none;rounded=0;fontSize=21;" vertex="1" parent="QXgPABeYLbt02TVLiIt6-21">
          <mxGeometry x="70" y="35" width="110" height="30" as="geometry" />
        </mxCell>
        <mxCell id="QXgPABeYLbt02TVLiIt6-24" value="" style="group;container=1;" vertex="1" connectable="0" parent="yaZ0OLRwCMexfej6j701-1">
          <mxGeometry x="164" y="320" width="250" height="100" as="geometry" />
        </mxCell>
        <mxCell id="QXgPABeYLbt02TVLiIt6-25" value="" style="rounded=0;whiteSpace=wrap;html=1;strokeColor=#000000;fontSize=18;" vertex="1" parent="QXgPABeYLbt02TVLiIt6-24">
          <mxGeometry width="250" height="100" as="geometry" />
        </mxCell>
        <mxCell id="QXgPABeYLbt02TVLiIt6-26" value="Categorie&amp;nbsp;" style="text;html=1;resizable=0;autosize=1;align=center;verticalAlign=middle;points=[];fillColor=none;strokeColor=none;rounded=0;fontSize=21;" vertex="1" parent="QXgPABeYLbt02TVLiIt6-24">
          <mxGeometry x="70" y="35" width="110" height="30" as="geometry" />
        </mxCell>
      </root>
    </mxGraphModel>
  </diagram>
  <diagram id="snf-Es6CxyMl8YCYql_k" name="Master (question select)">
    <mxGraphModel dx="1422" dy="762" grid="1" gridSize="10" guides="1" tooltips="1" connect="1" arrows="1" fold="1" page="1" pageScale="1" pageWidth="827" pageHeight="1169" math="0" shadow="0">
      <root>
        <mxCell id="ePdTbbQep4bjRIE6fR4q-0" />
        <mxCell id="ePdTbbQep4bjRIE6fR4q-1" parent="ePdTbbQep4bjRIE6fR4q-0" />
        <mxCell id="tUZ7KYt5-jYqXADS6upY-0" value="" style="rounded=0;whiteSpace=wrap;html=1;strokeColor=#000000;fillColor=#ffffff;fontSize=20;movable=0;resizable=0;rotatable=0;deletable=0;editable=0;connectable=0;" vertex="1" parent="ePdTbbQep4bjRIE6fR4q-1">
          <mxGeometry x="10" y="20" width="800" height="490" as="geometry" />
        </mxCell>
        <mxCell id="tUZ7KYt5-jYqXADS6upY-1" value="&lt;font style=&quot;font-size: 18px&quot;&gt;Kies vragen&lt;/font&gt;" style="text;html=1;resizable=0;autosize=1;align=center;verticalAlign=middle;points=[];fillColor=none;strokeColor=none;rounded=0;fontSize=18;" vertex="1" parent="ePdTbbQep4bjRIE6fR4q-1">
          <mxGeometry x="359" y="47" width="110" height="30" as="geometry" />
        </mxCell>
        <mxCell id="tUZ7KYt5-jYqXADS6upY-5" value="&lt;font style=&quot;font-size: 16px&quot;&gt;Vragen kiezen&lt;/font&gt;" style="rounded=1;html=1;shadow=0;dashed=0;whiteSpace=wrap;fontSize=10;fillColor=#666666;align=center;strokeColor=#4D4D4D;fontColor=#ffffff;" vertex="1" parent="ePdTbbQep4bjRIE6fR4q-1">
          <mxGeometry x="285" y="450" width="250" height="40" as="geometry" />
        </mxCell>
        <mxCell id="VUr3OVxlQW6z0vAnIbIP-0" value="&lt;font style=&quot;font-size: 32px&quot;&gt;Geschiedenis&lt;/font&gt;" style="text;html=1;resizable=0;autosize=1;align=center;verticalAlign=middle;points=[];fillColor=none;strokeColor=none;rounded=0;fontSize=20;" vertex="1" parent="ePdTbbQep4bjRIE6fR4q-1">
          <mxGeometry x="305" y="90" width="210" height="30" as="geometry" />
        </mxCell>
        <mxCell id="VUr3OVxlQW6z0vAnIbIP-15" value="" style="rounded=0;whiteSpace=wrap;html=1;strokeColor=#000000;fillColor=#ffffff;fontSize=18;" vertex="1" parent="ePdTbbQep4bjRIE6fR4q-1">
          <mxGeometry x="75" y="140" width="160" height="80" as="geometry" />
        </mxCell>
        <mxCell id="VUr3OVxlQW6z0vAnIbIP-16" value="" style="rounded=0;whiteSpace=wrap;html=1;strokeColor=#000000;fillColor=#ffffff;fontSize=18;" vertex="1" parent="ePdTbbQep4bjRIE6fR4q-1">
          <mxGeometry x="245" y="140" width="160" height="80" as="geometry" />
        </mxCell>
        <mxCell id="VUr3OVxlQW6z0vAnIbIP-17" value="" style="rounded=0;whiteSpace=wrap;html=1;strokeColor=#000000;fillColor=#ffffff;fontSize=18;" vertex="1" parent="ePdTbbQep4bjRIE6fR4q-1">
          <mxGeometry x="415" y="140" width="160" height="80" as="geometry" />
        </mxCell>
        <mxCell id="VUr3OVxlQW6z0vAnIbIP-18" value="" style="rounded=0;whiteSpace=wrap;html=1;strokeColor=#000000;fillColor=#ffffff;fontSize=18;" vertex="1" parent="ePdTbbQep4bjRIE6fR4q-1">
          <mxGeometry x="585" y="140" width="160" height="80" as="geometry" />
        </mxCell>
        <mxCell id="VUr3OVxlQW6z0vAnIbIP-19" value="" style="rounded=0;whiteSpace=wrap;html=1;strokeColor=#000000;fillColor=#ffffff;fontSize=18;" vertex="1" parent="ePdTbbQep4bjRIE6fR4q-1">
          <mxGeometry x="415" y="230" width="160" height="80" as="geometry" />
        </mxCell>
        <mxCell id="VUr3OVxlQW6z0vAnIbIP-20" value="" style="rounded=0;whiteSpace=wrap;html=1;strokeColor=#000000;fillColor=#ffffff;fontSize=18;" vertex="1" parent="ePdTbbQep4bjRIE6fR4q-1">
          <mxGeometry x="585" y="230" width="160" height="80" as="geometry" />
        </mxCell>
        <mxCell id="VUr3OVxlQW6z0vAnIbIP-21" value="" style="rounded=0;whiteSpace=wrap;html=1;strokeColor=#000000;fillColor=#ffffff;fontSize=18;" vertex="1" parent="ePdTbbQep4bjRIE6fR4q-1">
          <mxGeometry x="245" y="230" width="160" height="80" as="geometry" />
        </mxCell>
        <mxCell id="VUr3OVxlQW6z0vAnIbIP-22" value="" style="rounded=0;whiteSpace=wrap;html=1;strokeColor=#000000;fillColor=#ffffff;fontSize=18;" vertex="1" parent="ePdTbbQep4bjRIE6fR4q-1">
          <mxGeometry x="75" y="230" width="160" height="80" as="geometry" />
        </mxCell>
        <mxCell id="VUr3OVxlQW6z0vAnIbIP-23" value="" style="rounded=0;whiteSpace=wrap;html=1;strokeColor=#000000;fillColor=#ffffff;fontSize=18;" vertex="1" parent="ePdTbbQep4bjRIE6fR4q-1">
          <mxGeometry x="415" y="320" width="160" height="80" as="geometry" />
        </mxCell>
        <mxCell id="VUr3OVxlQW6z0vAnIbIP-24" value="" style="rounded=0;whiteSpace=wrap;html=1;strokeColor=#000000;fillColor=#ffffff;fontSize=18;" vertex="1" parent="ePdTbbQep4bjRIE6fR4q-1">
          <mxGeometry x="585" y="320" width="160" height="80" as="geometry" />
        </mxCell>
        <mxCell id="VUr3OVxlQW6z0vAnIbIP-25" value="" style="rounded=0;whiteSpace=wrap;html=1;strokeColor=#000000;fillColor=#ffffff;fontSize=18;" vertex="1" parent="ePdTbbQep4bjRIE6fR4q-1">
          <mxGeometry x="245" y="320" width="160" height="80" as="geometry" />
        </mxCell>
        <mxCell id="VUr3OVxlQW6z0vAnIbIP-26" value="" style="rounded=0;whiteSpace=wrap;html=1;strokeColor=#000000;fillColor=#ffffff;fontSize=18;" vertex="1" parent="ePdTbbQep4bjRIE6fR4q-1">
          <mxGeometry x="75" y="320" width="160" height="80" as="geometry" />
        </mxCell>
        <mxCell id="lBGr5HLYQjGnoLnMdwph-0" value="&lt;font style=&quot;font-size: 15px;&quot;&gt;Nieuwe vragen laden&lt;/font&gt;" style="rounded=1;html=1;shadow=0;dashed=0;whiteSpace=wrap;fontSize=15;fillColor=#666666;align=center;strokeColor=#4D4D4D;fontColor=#ffffff;" vertex="1" parent="ePdTbbQep4bjRIE6fR4q-1">
          <mxGeometry x="587.5" y="68.25" width="155" height="43" as="geometry" />
        </mxCell>
        <mxCell id="guWD9Ow1OmmE1IrlObMj-0" value="" style="html=1;verticalLabelPosition=bottom;align=center;labelBackgroundColor=#ffffff;verticalAlign=top;strokeWidth=2;shadow=0;dashed=0;shape=mxgraph.ios7.icons.back;fillColor=#ffffff;fontSize=15;" vertex="1" parent="ePdTbbQep4bjRIE6fR4q-1">
          <mxGeometry x="80" y="77" width="30" height="25.5" as="geometry" />
        </mxCell>
      </root>
    </mxGraphModel>
  </diagram>
  <diagram id="htXHuQY24MpjeJZ886Gs" name="Master (choose question)">
    <mxGraphModel dx="1422" dy="762" grid="1" gridSize="10" guides="1" tooltips="1" connect="1" arrows="1" fold="1" page="1" pageScale="1" pageWidth="827" pageHeight="1169" math="0" shadow="0">
      <root>
        <mxCell id="mYyCQgHeB9ZmszUpxgHh-0" />
        <mxCell id="mYyCQgHeB9ZmszUpxgHh-1" parent="mYyCQgHeB9ZmszUpxgHh-0" />
        <mxCell id="jny9MAhfYRHSSThkqCyy-0" value="" style="rounded=0;whiteSpace=wrap;html=1;strokeColor=#000000;fillColor=#ffffff;fontSize=20;movable=0;resizable=0;rotatable=0;deletable=0;editable=0;connectable=0;" vertex="1" parent="mYyCQgHeB9ZmszUpxgHh-1">
          <mxGeometry x="10" y="20" width="800" height="490" as="geometry" />
        </mxCell>
        <mxCell id="jny9MAhfYRHSSThkqCyy-1" value="&lt;font style=&quot;font-size: 18px&quot;&gt;Kies vraag om te versturen naar teams&lt;/font&gt;" style="text;html=1;resizable=0;autosize=1;align=center;verticalAlign=middle;points=[];fillColor=none;strokeColor=none;rounded=0;fontSize=18;" vertex="1" parent="mYyCQgHeB9ZmszUpxgHh-1">
          <mxGeometry x="249" y="70" width="330" height="30" as="geometry" />
        </mxCell>
        <mxCell id="jny9MAhfYRHSSThkqCyy-2" value="&lt;font style=&quot;font-size: 16px&quot;&gt;Versturen&lt;/font&gt;" style="rounded=1;html=1;shadow=0;dashed=0;whiteSpace=wrap;fontSize=10;fillColor=#666666;align=center;strokeColor=#4D4D4D;fontColor=#ffffff;" vertex="1" parent="mYyCQgHeB9ZmszUpxgHh-1">
          <mxGeometry x="285" y="450" width="250" height="40" as="geometry" />
        </mxCell>
        <mxCell id="jny9MAhfYRHSSThkqCyy-4" value="" style="rounded=0;whiteSpace=wrap;html=1;strokeColor=#000000;fillColor=#ffffff;fontSize=18;" vertex="1" parent="mYyCQgHeB9ZmszUpxgHh-1">
          <mxGeometry x="75" y="140" width="160" height="80" as="geometry" />
        </mxCell>
        <mxCell id="jny9MAhfYRHSSThkqCyy-5" value="" style="rounded=0;whiteSpace=wrap;html=1;strokeColor=#000000;fillColor=#ffffff;fontSize=18;" vertex="1" parent="mYyCQgHeB9ZmszUpxgHh-1">
          <mxGeometry x="245" y="140" width="160" height="80" as="geometry" />
        </mxCell>
        <mxCell id="jny9MAhfYRHSSThkqCyy-6" value="" style="rounded=0;whiteSpace=wrap;html=1;strokeColor=#000000;fillColor=#ffffff;fontSize=18;" vertex="1" parent="mYyCQgHeB9ZmszUpxgHh-1">
          <mxGeometry x="415" y="140" width="160" height="80" as="geometry" />
        </mxCell>
        <mxCell id="jny9MAhfYRHSSThkqCyy-7" value="" style="rounded=0;whiteSpace=wrap;html=1;strokeColor=#000000;fillColor=#ffffff;fontSize=18;" vertex="1" parent="mYyCQgHeB9ZmszUpxgHh-1">
          <mxGeometry x="585" y="140" width="160" height="80" as="geometry" />
        </mxCell>
        <mxCell id="jny9MAhfYRHSSThkqCyy-8" value="" style="rounded=0;whiteSpace=wrap;html=1;strokeColor=#000000;fillColor=#ffffff;fontSize=18;" vertex="1" parent="mYyCQgHeB9ZmszUpxgHh-1">
          <mxGeometry x="415" y="230" width="160" height="80" as="geometry" />
        </mxCell>
        <mxCell id="jny9MAhfYRHSSThkqCyy-9" value="" style="rounded=0;whiteSpace=wrap;html=1;strokeColor=#000000;fillColor=#ffffff;fontSize=18;" vertex="1" parent="mYyCQgHeB9ZmszUpxgHh-1">
          <mxGeometry x="585" y="230" width="160" height="80" as="geometry" />
        </mxCell>
        <mxCell id="jny9MAhfYRHSSThkqCyy-10" value="" style="rounded=0;whiteSpace=wrap;html=1;strokeColor=#000000;fillColor=#ffffff;fontSize=18;" vertex="1" parent="mYyCQgHeB9ZmszUpxgHh-1">
          <mxGeometry x="245" y="230" width="160" height="80" as="geometry" />
        </mxCell>
        <mxCell id="jny9MAhfYRHSSThkqCyy-11" value="" style="rounded=0;whiteSpace=wrap;html=1;strokeColor=#000000;fillColor=#ffffff;fontSize=18;" vertex="1" parent="mYyCQgHeB9ZmszUpxgHh-1">
          <mxGeometry x="75" y="230" width="160" height="80" as="geometry" />
        </mxCell>
        <mxCell id="jny9MAhfYRHSSThkqCyy-12" value="" style="rounded=0;whiteSpace=wrap;html=1;strokeColor=#000000;fillColor=#ffffff;fontSize=18;" vertex="1" parent="mYyCQgHeB9ZmszUpxgHh-1">
          <mxGeometry x="415" y="320" width="160" height="80" as="geometry" />
        </mxCell>
        <mxCell id="jny9MAhfYRHSSThkqCyy-13" value="" style="rounded=0;whiteSpace=wrap;html=1;strokeColor=#000000;fillColor=#ffffff;fontSize=18;" vertex="1" parent="mYyCQgHeB9ZmszUpxgHh-1">
          <mxGeometry x="585" y="320" width="160" height="80" as="geometry" />
        </mxCell>
        <mxCell id="jny9MAhfYRHSSThkqCyy-14" value="" style="rounded=0;whiteSpace=wrap;html=1;strokeColor=#000000;fillColor=#ffffff;fontSize=18;" vertex="1" parent="mYyCQgHeB9ZmszUpxgHh-1">
          <mxGeometry x="245" y="320" width="160" height="80" as="geometry" />
        </mxCell>
        <mxCell id="jny9MAhfYRHSSThkqCyy-15" value="" style="rounded=0;whiteSpace=wrap;html=1;strokeColor=#000000;fillColor=#ffffff;fontSize=18;" vertex="1" parent="mYyCQgHeB9ZmszUpxgHh-1">
          <mxGeometry x="75" y="320" width="160" height="80" as="geometry" />
        </mxCell>
      </root>
    </mxGraphModel>
  </diagram>
  <diagram id="42vwg9El1YKDbNmCgDKZ" name="Team (question)">
    <mxGraphModel dx="1422" dy="762" grid="1" gridSize="10" guides="1" tooltips="1" connect="1" arrows="1" fold="1" page="1" pageScale="1" pageWidth="827" pageHeight="1169" math="0" shadow="0">
      <root>
        <mxCell id="QkGiYklqWQTnBV3kZwdo-0" />
        <mxCell id="QkGiYklqWQTnBV3kZwdo-1" parent="QkGiYklqWQTnBV3kZwdo-0" />
        <mxCell id="zLFI7XkpvWEnK4Uy0b-b-0" value="" style="rounded=0;whiteSpace=wrap;html=1;strokeColor=#000000;fillColor=#ffffff;fontSize=18;" vertex="1" parent="QkGiYklqWQTnBV3kZwdo-1">
          <mxGeometry x="222" y="40" width="383.18" height="650" as="geometry" />
        </mxCell>
        <mxCell id="zLFI7XkpvWEnK4Uy0b-b-1" value="" style="rounded=0;whiteSpace=wrap;html=1;strokeColor=#000000;fillColor=#ffffff;fontSize=18;" vertex="1" parent="QkGiYklqWQTnBV3kZwdo-1">
          <mxGeometry x="264" y="260" width="300" height="50" as="geometry" />
        </mxCell>
        <mxCell id="zLFI7XkpvWEnK4Uy0b-b-3" value="&lt;font style=&quot;font-size: 16px&quot;&gt;Antwoord versturen&lt;/font&gt;" style="rounded=1;html=1;shadow=0;dashed=0;whiteSpace=wrap;fontSize=10;fillColor=#666666;align=center;strokeColor=#4D4D4D;fontColor=#ffffff;" vertex="1" parent="QkGiYklqWQTnBV3kZwdo-1">
          <mxGeometry x="289" y="340" width="250" height="40" as="geometry" />
        </mxCell>
        <mxCell id="bngni-ZAHizG8RzFXD30-0" value="&lt;font style=&quot;font-size: 20px;&quot;&gt;History&lt;/font&gt;" style="text;html=1;resizable=0;autosize=1;align=center;verticalAlign=middle;points=[];fillColor=none;strokeColor=none;rounded=0;fontSize=20;fontStyle=3" vertex="1" parent="QkGiYklqWQTnBV3kZwdo-1">
          <mxGeometry x="374" y="130" width="80" height="30" as="geometry" />
        </mxCell>
        <mxCell id="bngni-ZAHizG8RzFXD30-1" value="&lt;font style=&quot;font-size: 20px;&quot;&gt;Wie heeft het licht uitgevonden?&lt;/font&gt;" style="text;html=1;resizable=0;autosize=1;align=center;verticalAlign=middle;points=[];fillColor=none;strokeColor=none;rounded=0;fontSize=20;" vertex="1" parent="QkGiYklqWQTnBV3kZwdo-1">
          <mxGeometry x="264" y="174" width="300" height="30" as="geometry" />
        </mxCell>
        <mxCell id="1_T6YKxw9bp48dgRSeJz-0" value="Ronde :&amp;nbsp; &amp;nbsp;1&lt;br&gt;Vraag :&amp;nbsp; &amp;nbsp; 1 / 15" style="text;html=1;resizable=0;autosize=1;align=left;verticalAlign=middle;points=[];fillColor=none;strokeColor=none;rounded=0;" vertex="1" parent="QkGiYklqWQTnBV3kZwdo-1">
          <mxGeometry x="250" y="60" width="100" height="30" as="geometry" />
        </mxCell>
      </root>
    </mxGraphModel>
  </diagram>
  <diagram id="VaH1OReTsKeqduY1nPw4" name="Scoreboard (questions)">
    <mxGraphModel dx="1422" dy="762" grid="1" gridSize="10" guides="1" tooltips="1" connect="1" arrows="1" fold="1" page="1" pageScale="1" pageWidth="827" pageHeight="1169" math="0" shadow="0">
      <root>
        <mxCell id="iDgp8rmbf_EPnNC9_9jx-0" />
        <mxCell id="iDgp8rmbf_EPnNC9_9jx-1" parent="iDgp8rmbf_EPnNC9_9jx-0" />
        <mxCell id="iDgp8rmbf_EPnNC9_9jx-2" value="&lt;font style=&quot;font-size: 32px&quot;&gt;History&lt;/font&gt;" style="text;html=1;resizable=0;autosize=1;align=center;verticalAlign=middle;points=[];fillColor=none;strokeColor=none;rounded=0;fontSize=18;fontStyle=2" vertex="1" parent="iDgp8rmbf_EPnNC9_9jx-1">
          <mxGeometry x="354" y="70" width="120" height="30" as="geometry" />
        </mxCell>
        <mxCell id="iDgp8rmbf_EPnNC9_9jx-3" value="&lt;font style=&quot;font-size: 30px&quot;&gt;Wie heeft het licht uitgevonden?&lt;/font&gt;" style="text;html=1;resizable=0;autosize=1;align=center;verticalAlign=middle;points=[];fillColor=none;strokeColor=none;rounded=0;fontSize=18;" vertex="1" parent="iDgp8rmbf_EPnNC9_9jx-1">
          <mxGeometry x="194" y="190" width="440" height="30" as="geometry" />
        </mxCell>
        <mxCell id="iDgp8rmbf_EPnNC9_9jx-4" value="" style="rounded=0;whiteSpace=wrap;html=1;strokeColor=#000000;fontSize=18;" vertex="1" parent="iDgp8rmbf_EPnNC9_9jx-1">
          <mxGeometry x="157" y="330" width="150" height="162" as="geometry" />
        </mxCell>
        <mxCell id="uA6V3IvYnYT1dTN_pUTx-0" value="Team 1" style="text;html=1;resizable=0;autosize=1;align=center;verticalAlign=middle;points=[];fillColor=none;strokeColor=none;rounded=0;fontSize=18;" vertex="1" parent="iDgp8rmbf_EPnNC9_9jx-1">
          <mxGeometry x="197" y="342" width="70" height="30" as="geometry" />
        </mxCell>
        <mxCell id="uA6V3IvYnYT1dTN_pUTx-1" value="" style="verticalLabelPosition=bottom;verticalAlign=top;html=1;shape=mxgraph.basic.tick;strokeColor=#000000;fillColor=#ffffff;fontSize=18;" vertex="1" parent="iDgp8rmbf_EPnNC9_9jx-1">
          <mxGeometry x="190" y="380" width="85" height="100" as="geometry" />
        </mxCell>
        <mxCell id="uA6V3IvYnYT1dTN_pUTx-2" value="" style="rounded=0;whiteSpace=wrap;html=1;strokeColor=#000000;fontSize=18;" vertex="1" parent="iDgp8rmbf_EPnNC9_9jx-1">
          <mxGeometry x="339" y="330" width="150" height="162" as="geometry" />
        </mxCell>
        <mxCell id="uA6V3IvYnYT1dTN_pUTx-3" value="Team 2" style="text;html=1;resizable=0;autosize=1;align=center;verticalAlign=middle;points=[];fillColor=none;strokeColor=none;rounded=0;fontSize=18;" vertex="1" parent="iDgp8rmbf_EPnNC9_9jx-1">
          <mxGeometry x="379" y="342" width="70" height="30" as="geometry" />
        </mxCell>
        <mxCell id="uA6V3IvYnYT1dTN_pUTx-4" value="" style="verticalLabelPosition=bottom;verticalAlign=top;html=1;shape=mxgraph.basic.tick;strokeColor=#000000;fillColor=#ffffff;fontSize=18;" vertex="1" parent="iDgp8rmbf_EPnNC9_9jx-1">
          <mxGeometry x="372" y="380" width="85" height="100" as="geometry" />
        </mxCell>
        <mxCell id="uA6V3IvYnYT1dTN_pUTx-5" value="" style="rounded=0;whiteSpace=wrap;html=1;strokeColor=#000000;fontSize=18;" vertex="1" parent="iDgp8rmbf_EPnNC9_9jx-1">
          <mxGeometry x="520" y="330" width="150" height="162" as="geometry" />
        </mxCell>
        <mxCell id="uA6V3IvYnYT1dTN_pUTx-6" value="Team 3" style="text;html=1;resizable=0;autosize=1;align=center;verticalAlign=middle;points=[];fillColor=none;strokeColor=none;rounded=0;fontSize=18;" vertex="1" parent="iDgp8rmbf_EPnNC9_9jx-1">
          <mxGeometry x="560" y="342" width="70" height="30" as="geometry" />
        </mxCell>
        <mxCell id="uA6V3IvYnYT1dTN_pUTx-8" value="" style="shape=cross;whiteSpace=wrap;html=1;strokeColor=#000000;fillColor=#ffffff;fontSize=18;rotation=45;" vertex="1" parent="iDgp8rmbf_EPnNC9_9jx-1">
          <mxGeometry x="543.5" y="378.5" width="103" height="103" as="geometry" />
        </mxCell>
      </root>
    </mxGraphModel>
  </diagram>
  <diagram id="klKTb6_LtOEabFFrYWkn" name="Master (review answers)">
    <mxGraphModel dx="1422" dy="762" grid="1" gridSize="10" guides="1" tooltips="1" connect="1" arrows="1" fold="1" page="1" pageScale="1" pageWidth="827" pageHeight="1169" math="0" shadow="0">
      <root>
        <mxCell id="h2W9QzYGCvJLRUThtO5J-0" />
        <mxCell id="h2W9QzYGCvJLRUThtO5J-1" parent="h2W9QzYGCvJLRUThtO5J-0" />
        <mxCell id="pO9dpPURlhp1BCBk0N2m-0" value="" style="rounded=0;whiteSpace=wrap;html=1;strokeColor=#000000;fillColor=#ffffff;fontSize=20;movable=0;resizable=0;rotatable=0;deletable=0;editable=0;connectable=0;" vertex="1" parent="h2W9QzYGCvJLRUThtO5J-1">
          <mxGeometry x="10" y="20" width="800" height="490" as="geometry" />
        </mxCell>
        <mxCell id="pO9dpPURlhp1BCBk0N2m-1" value="&lt;font style=&quot;font-size: 18px&quot;&gt;Antwoorden controleren&lt;/font&gt;" style="text;html=1;resizable=0;autosize=1;align=center;verticalAlign=middle;points=[];fillColor=none;strokeColor=none;rounded=0;fontSize=18;" vertex="1" parent="h2W9QzYGCvJLRUThtO5J-1">
          <mxGeometry x="309" y="120" width="210" height="30" as="geometry" />
        </mxCell>
        <mxCell id="pO9dpPURlhp1BCBk0N2m-2" value="&lt;font style=&quot;font-size: 16px&quot;&gt;Volgende&lt;/font&gt;" style="rounded=1;html=1;shadow=0;dashed=0;whiteSpace=wrap;fontSize=10;fillColor=#666666;align=center;strokeColor=#4D4D4D;fontColor=#ffffff;" vertex="1" parent="h2W9QzYGCvJLRUThtO5J-1">
          <mxGeometry x="285" y="450" width="250" height="40" as="geometry" />
        </mxCell>
        <mxCell id="skgaNo_Ab92-gVrqa6lp-0" value="" style="group" vertex="1" connectable="0" parent="h2W9QzYGCvJLRUThtO5J-1">
          <mxGeometry x="29" y="200" width="250" height="162" as="geometry" />
        </mxCell>
        <mxCell id="skgaNo_Ab92-gVrqa6lp-1" value="" style="rounded=0;whiteSpace=wrap;html=1;strokeColor=#000000;fontSize=18;" vertex="1" parent="skgaNo_Ab92-gVrqa6lp-0">
          <mxGeometry y="-40" width="250" height="202" as="geometry" />
        </mxCell>
        <mxCell id="skgaNo_Ab92-gVrqa6lp-3" value="" style="verticalLabelPosition=bottom;verticalAlign=top;html=1;shape=mxgraph.basic.tick;strokeColor=#000000;fillColor=#ffffff;fontSize=18;" vertex="1" parent="skgaNo_Ab92-gVrqa6lp-0">
          <mxGeometry x="35.17" y="69.25" width="54.83" height="64.5" as="geometry" />
        </mxCell>
        <mxCell id="skgaNo_Ab92-gVrqa6lp-4" value="" style="shape=cross;whiteSpace=wrap;html=1;strokeColor=#000000;fillColor=#ffffff;fontSize=18;rotation=45;" vertex="1" parent="skgaNo_Ab92-gVrqa6lp-0">
          <mxGeometry x="160" y="68.5" width="66" height="66" as="geometry" />
        </mxCell>
        <mxCell id="skgaNo_Ab92-gVrqa6lp-5" value="" style="whiteSpace=wrap;html=1;strokeColor=#000000;fillColor=#ffffff;fontSize=20;" vertex="1" parent="skgaNo_Ab92-gVrqa6lp-0">
          <mxGeometry x="120" y="56" width="10" height="90" as="geometry" />
        </mxCell>
        <mxCell id="CTj5AnDd6TXGATUex2PY-0" value="Albert Einstein" style="text;html=1;strokeColor=none;fillColor=none;align=center;verticalAlign=middle;whiteSpace=wrap;rounded=0;fontSize=15;" vertex="1" parent="skgaNo_Ab92-gVrqa6lp-0">
          <mxGeometry x="57.5" y="10" width="135" height="20" as="geometry" />
        </mxCell>
        <mxCell id="skgaNo_Ab92-gVrqa6lp-6" value="" style="group" vertex="1" connectable="0" parent="h2W9QzYGCvJLRUThtO5J-1">
          <mxGeometry x="288" y="200" width="250" height="162" as="geometry" />
        </mxCell>
        <mxCell id="skgaNo_Ab92-gVrqa6lp-7" value="" style="rounded=0;whiteSpace=wrap;html=1;strokeColor=#000000;fontSize=18;" vertex="1" parent="skgaNo_Ab92-gVrqa6lp-6">
          <mxGeometry y="-40" width="250" height="202" as="geometry" />
        </mxCell>
        <mxCell id="skgaNo_Ab92-gVrqa6lp-9" value="" style="verticalLabelPosition=bottom;verticalAlign=top;html=1;shape=mxgraph.basic.tick;strokeColor=#000000;fillColor=#ffffff;fontSize=18;" vertex="1" parent="skgaNo_Ab92-gVrqa6lp-6">
          <mxGeometry x="98" y="69.25" width="54.83" height="64.5" as="geometry" />
        </mxCell>
        <mxCell id="CTj5AnDd6TXGATUex2PY-1" value="Sanne" style="text;html=1;strokeColor=none;fillColor=none;align=center;verticalAlign=middle;whiteSpace=wrap;rounded=0;fontSize=15;" vertex="1" parent="skgaNo_Ab92-gVrqa6lp-6">
          <mxGeometry x="58" y="10" width="135" height="20" as="geometry" />
        </mxCell>
        <mxCell id="skgaNo_Ab92-gVrqa6lp-12" value="" style="group" vertex="1" connectable="0" parent="h2W9QzYGCvJLRUThtO5J-1">
          <mxGeometry x="549" y="200" width="250" height="162" as="geometry" />
        </mxCell>
        <mxCell id="skgaNo_Ab92-gVrqa6lp-13" value="" style="rounded=0;whiteSpace=wrap;html=1;strokeColor=#000000;fontSize=18;" vertex="1" parent="skgaNo_Ab92-gVrqa6lp-12">
          <mxGeometry y="-40" width="250" height="202" as="geometry" />
        </mxCell>
        <mxCell id="skgaNo_Ab92-gVrqa6lp-15" value="" style="verticalLabelPosition=bottom;verticalAlign=top;html=1;shape=mxgraph.basic.tick;strokeColor=#000000;fillColor=#ffffff;fontSize=18;" vertex="1" parent="skgaNo_Ab92-gVrqa6lp-12">
          <mxGeometry x="35.17" y="69.25" width="54.83" height="64.5" as="geometry" />
        </mxCell>
        <mxCell id="skgaNo_Ab92-gVrqa6lp-16" value="" style="shape=cross;whiteSpace=wrap;html=1;strokeColor=#000000;fillColor=#ffffff;fontSize=18;rotation=45;" vertex="1" parent="skgaNo_Ab92-gVrqa6lp-12">
          <mxGeometry x="160" y="68.5" width="66" height="66" as="geometry" />
        </mxCell>
        <mxCell id="skgaNo_Ab92-gVrqa6lp-17" value="" style="whiteSpace=wrap;html=1;strokeColor=#000000;fillColor=#ffffff;fontSize=20;" vertex="1" parent="skgaNo_Ab92-gVrqa6lp-12">
          <mxGeometry x="120" y="56" width="10" height="90" as="geometry" />
        </mxCell>
        <mxCell id="CTj5AnDd6TXGATUex2PY-2" value="Patrick" style="text;html=1;strokeColor=none;fillColor=none;align=center;verticalAlign=middle;whiteSpace=wrap;rounded=0;fontSize=15;" vertex="1" parent="skgaNo_Ab92-gVrqa6lp-12">
          <mxGeometry x="57.5" y="10" width="135" height="20" as="geometry" />
        </mxCell>
        <mxCell id="skgaNo_Ab92-gVrqa6lp-2" value="Team 1" style="text;html=1;resizable=0;autosize=1;align=center;verticalAlign=middle;points=[];fillColor=none;strokeColor=none;rounded=0;fontSize=18;" vertex="1" parent="h2W9QzYGCvJLRUThtO5J-1">
          <mxGeometry x="119" y="170" width="70" height="30" as="geometry" />
        </mxCell>
        <mxCell id="skgaNo_Ab92-gVrqa6lp-8" value="Team 2" style="text;html=1;resizable=0;autosize=1;align=center;verticalAlign=middle;points=[];fillColor=none;strokeColor=none;rounded=0;fontSize=18;" vertex="1" parent="h2W9QzYGCvJLRUThtO5J-1">
          <mxGeometry x="378" y="170" width="70" height="30" as="geometry" />
        </mxCell>
        <mxCell id="skgaNo_Ab92-gVrqa6lp-14" value="Team 3" style="text;html=1;resizable=0;autosize=1;align=center;verticalAlign=middle;points=[];fillColor=none;strokeColor=none;rounded=0;fontSize=18;" vertex="1" parent="h2W9QzYGCvJLRUThtO5J-1">
          <mxGeometry x="639" y="170" width="70" height="30" as="geometry" />
        </mxCell>
        <mxCell id="is6zexeGr3rVfD-c7CmJ-0" value="&lt;span style=&quot;font-size: 27px;&quot;&gt;Wie heeft het licht uitgevonden?&lt;/span&gt;" style="text;html=1;strokeColor=none;fillColor=none;align=center;verticalAlign=middle;whiteSpace=wrap;rounded=0;fontSize=27;" vertex="1" parent="h2W9QzYGCvJLRUThtO5J-1">
          <mxGeometry x="214" y="70" width="400" height="20" as="geometry" />
        </mxCell>
      </root>
    </mxGraphModel>
  </diagram>
  <diagram id="OWWnJQem0VxTc57AGr5H" name="Scoreboard (answers)">
    <mxGraphModel dx="1185" dy="635" grid="1" gridSize="10" guides="1" tooltips="1" connect="1" arrows="1" fold="1" page="1" pageScale="1" pageWidth="827" pageHeight="1169" math="0" shadow="0">
      <root>
        <mxCell id="-MM0n-s-T5uT2thTUqNh-0" />
        <mxCell id="-MM0n-s-T5uT2thTUqNh-1" parent="-MM0n-s-T5uT2thTUqNh-0" />
        <mxCell id="f1DRgxmNzE6DwAKsGi6d-0" value="&lt;font style=&quot;font-size: 32px&quot;&gt;History&lt;/font&gt;" style="text;html=1;resizable=0;autosize=1;align=center;verticalAlign=middle;points=[];fillColor=none;strokeColor=none;rounded=0;fontSize=18;fontStyle=2" vertex="1" parent="-MM0n-s-T5uT2thTUqNh-1">
          <mxGeometry x="354" y="30" width="120" height="30" as="geometry" />
        </mxCell>
        <mxCell id="f1DRgxmNzE6DwAKsGi6d-1" value="&lt;font style=&quot;font-size: 30px&quot;&gt;Wie heeft het licht uitgevonden?&lt;/font&gt;" style="text;html=1;resizable=0;autosize=1;align=center;verticalAlign=middle;points=[];fillColor=none;strokeColor=none;rounded=0;fontSize=18;" vertex="1" parent="-MM0n-s-T5uT2thTUqNh-1">
          <mxGeometry x="194" y="80" width="440" height="30" as="geometry" />
        </mxCell>
        <mxCell id="A055LPUf4sMk-UKWLNEg-19" value="" style="group" vertex="1" connectable="0" parent="-MM0n-s-T5uT2thTUqNh-1">
          <mxGeometry x="196" y="175" width="436" height="40" as="geometry" />
        </mxCell>
        <mxCell id="A055LPUf4sMk-UKWLNEg-17" value="" style="rounded=0;whiteSpace=wrap;html=1;strokeColor=#000000;fillColor=#ffffff;fontSize=18;" vertex="1" parent="A055LPUf4sMk-UKWLNEg-19">
          <mxGeometry width="436" height="40" as="geometry" />
        </mxCell>
        <mxCell id="A055LPUf4sMk-UKWLNEg-9" value="Team 1:" style="text;html=1;resizable=0;autosize=1;align=center;verticalAlign=middle;points=[];fillColor=none;strokeColor=none;rounded=0;fontSize=18;" vertex="1" parent="A055LPUf4sMk-UKWLNEg-19">
          <mxGeometry y="5" width="80" height="30" as="geometry" />
        </mxCell>
        <mxCell id="A055LPUf4sMk-UKWLNEg-10" value="Albert Einstein" style="text;html=1;resizable=0;autosize=1;align=center;verticalAlign=middle;points=[];fillColor=none;strokeColor=none;rounded=0;fontSize=18;" vertex="1" parent="A055LPUf4sMk-UKWLNEg-19">
          <mxGeometry x="96" y="5" width="130" height="30" as="geometry" />
        </mxCell>
        <mxCell id="A055LPUf4sMk-UKWLNEg-20" value="" style="group" vertex="1" connectable="0" parent="-MM0n-s-T5uT2thTUqNh-1">
          <mxGeometry x="196" y="215" width="466.5" height="40" as="geometry" />
        </mxCell>
        <mxCell id="A055LPUf4sMk-UKWLNEg-21" value="" style="rounded=0;whiteSpace=wrap;html=1;strokeColor=#000000;fillColor=#ffffff;fontSize=18;" vertex="1" parent="A055LPUf4sMk-UKWLNEg-20">
          <mxGeometry width="436" height="40" as="geometry" />
        </mxCell>
        <mxCell id="A055LPUf4sMk-UKWLNEg-22" value="Team 2:" style="text;html=1;resizable=0;autosize=1;align=center;verticalAlign=middle;points=[];fillColor=none;strokeColor=none;rounded=0;fontSize=18;" vertex="1" parent="A055LPUf4sMk-UKWLNEg-20">
          <mxGeometry y="5" width="80" height="30" as="geometry" />
        </mxCell>
        <mxCell id="A055LPUf4sMk-UKWLNEg-23" value="Sanne" style="text;html=1;resizable=0;autosize=1;align=center;verticalAlign=middle;points=[];fillColor=none;strokeColor=none;rounded=0;fontSize=18;" vertex="1" parent="A055LPUf4sMk-UKWLNEg-20">
          <mxGeometry x="96" y="5" width="70" height="30" as="geometry" />
        </mxCell>
        <mxCell id="A055LPUf4sMk-UKWLNEg-31" value="" style="verticalLabelPosition=bottom;verticalAlign=top;html=1;shape=mxgraph.basic.tick;strokeColor=#000000;fillColor=#ffffff;fontSize=18;" vertex="1" parent="A055LPUf4sMk-UKWLNEg-20">
          <mxGeometry x="424" y="-15" width="42.5" height="50" as="geometry" />
        </mxCell>
        <mxCell id="A055LPUf4sMk-UKWLNEg-24" value="" style="group" vertex="1" connectable="0" parent="-MM0n-s-T5uT2thTUqNh-1">
          <mxGeometry x="196" y="255" width="464" height="63.31" as="geometry" />
        </mxCell>
        <mxCell id="A055LPUf4sMk-UKWLNEg-25" value="" style="rounded=0;whiteSpace=wrap;html=1;strokeColor=#000000;fillColor=#ffffff;fontSize=18;" vertex="1" parent="A055LPUf4sMk-UKWLNEg-24">
          <mxGeometry width="436" height="40" as="geometry" />
        </mxCell>
        <mxCell id="A055LPUf4sMk-UKWLNEg-26" value="Team 3:" style="text;html=1;resizable=0;autosize=1;align=center;verticalAlign=middle;points=[];fillColor=none;strokeColor=none;rounded=0;fontSize=18;" vertex="1" parent="A055LPUf4sMk-UKWLNEg-24">
          <mxGeometry y="5" width="80" height="30" as="geometry" />
        </mxCell>
        <mxCell id="A055LPUf4sMk-UKWLNEg-27" value="Patrick" style="text;html=1;resizable=0;autosize=1;align=center;verticalAlign=middle;points=[];fillColor=none;strokeColor=none;rounded=0;fontSize=18;" vertex="1" parent="A055LPUf4sMk-UKWLNEg-24">
          <mxGeometry x="96" y="5" width="70" height="30" as="geometry" />
        </mxCell>
        <mxCell id="A055LPUf4sMk-UKWLNEg-32" value="" style="shape=cross;whiteSpace=wrap;html=1;strokeColor=#000000;fillColor=#ffffff;fontSize=18;rotation=45;" vertex="1" parent="A055LPUf4sMk-UKWLNEg-24">
          <mxGeometry x="416" y="-3" width="44" height="44" as="geometry" />
        </mxCell>
        <mxCell id="A055LPUf4sMk-UKWLNEg-30" value="" style="verticalLabelPosition=bottom;verticalAlign=top;html=1;shape=mxgraph.basic.tick;strokeColor=#000000;fillColor=#ffffff;fontSize=18;" vertex="1" parent="-MM0n-s-T5uT2thTUqNh-1">
          <mxGeometry x="620" y="160" width="42.5" height="50" as="geometry" />
        </mxCell>
      </root>
    </mxGraphModel>
  </diagram>
  <diagram id="hqFn6IQp6-o4hckcoJcb" name="Scoreboard (scores)">
    <mxGraphModel dx="981" dy="526" grid="1" gridSize="10" guides="1" tooltips="1" connect="1" arrows="1" fold="1" page="1" pageScale="1" pageWidth="827" pageHeight="1169" math="0" shadow="0">
      <root>
        <mxCell id="0" />
        <mxCell id="1" parent="0" />
        <mxCell id="vUOnrfQwN-WBCog0Yk4K-5" value="" style="rounded=0;whiteSpace=wrap;html=1;strokeColor=#000000;" vertex="1" parent="1">
          <mxGeometry x="50" y="120" width="160" height="80" as="geometry" />
        </mxCell>
        <mxCell id="vUOnrfQwN-WBCog0Yk4K-6" value="Ronde :&amp;nbsp; &amp;nbsp;1&lt;br&gt;Vraag :&amp;nbsp; &amp;nbsp; 1 / 15" style="text;html=1;resizable=0;autosize=1;align=left;verticalAlign=middle;points=[];fillColor=none;strokeColor=none;rounded=0;" vertex="1" parent="1">
          <mxGeometry x="80" y="145" width="100" height="30" as="geometry" />
        </mxCell>
        <mxCell id="vUOnrfQwN-WBCog0Yk4K-33" value="" style="group;fillColor=#ffffff;" vertex="1" connectable="0" parent="1">
          <mxGeometry x="269" y="75" width="290" height="170" as="geometry" />
        </mxCell>
        <mxCell id="vUOnrfQwN-WBCog0Yk4K-7" value="" style="rounded=0;whiteSpace=wrap;html=1;strokeColor=#000000;fillColor=none;" vertex="1" parent="vUOnrfQwN-WBCog0Yk4K-33">
          <mxGeometry width="290" height="170" as="geometry" />
        </mxCell>
        <mxCell id="vUOnrfQwN-WBCog0Yk4K-8" value="" style="ellipse;whiteSpace=wrap;html=1;aspect=fixed;strokeColor=#000000;fillColor=none;" vertex="1" parent="vUOnrfQwN-WBCog0Yk4K-33">
          <mxGeometry x="11" y="10" width="70" height="70" as="geometry" />
        </mxCell>
        <mxCell id="vUOnrfQwN-WBCog0Yk4K-9" value="Team 1" style="text;html=1;resizable=0;autosize=1;align=left;verticalAlign=middle;points=[];fillColor=none;strokeColor=none;rounded=0;fontSize=18;" vertex="1" parent="vUOnrfQwN-WBCog0Yk4K-33">
          <mxGeometry x="98" y="30" width="70" height="30" as="geometry" />
        </mxCell>
        <mxCell id="vUOnrfQwN-WBCog0Yk4K-10" value="" style="rounded=0;whiteSpace=wrap;html=1;strokeColor=#000000;fillColor=none;fontSize=24;" vertex="1" parent="vUOnrfQwN-WBCog0Yk4K-33">
          <mxGeometry y="100" width="98" height="70" as="geometry" />
        </mxCell>
        <mxCell id="vUOnrfQwN-WBCog0Yk4K-11" value="" style="rounded=0;whiteSpace=wrap;html=1;strokeColor=#000000;fillColor=none;fontSize=24;" vertex="1" parent="vUOnrfQwN-WBCog0Yk4K-33">
          <mxGeometry x="98" y="100" width="96" height="70" as="geometry" />
        </mxCell>
        <mxCell id="vUOnrfQwN-WBCog0Yk4K-12" value="" style="rounded=0;whiteSpace=wrap;html=1;strokeColor=#000000;fillColor=none;fontSize=24;" vertex="1" parent="vUOnrfQwN-WBCog0Yk4K-33">
          <mxGeometry x="194" y="100" width="96" height="70" as="geometry" />
        </mxCell>
        <mxCell id="vUOnrfQwN-WBCog0Yk4K-25" value="8" style="text;html=1;resizable=0;autosize=1;align=center;verticalAlign=middle;points=[];fillColor=none;strokeColor=none;rounded=0;fontSize=24;" vertex="1" parent="vUOnrfQwN-WBCog0Yk4K-33">
          <mxGeometry x="227" y="30" width="30" height="30" as="geometry" />
        </mxCell>
        <mxCell id="vUOnrfQwN-WBCog0Yk4K-26" value="&lt;font style=&quot;font-size: 12px&quot;&gt;Ronde 1&lt;/font&gt;" style="text;html=1;resizable=0;autosize=1;align=center;verticalAlign=middle;points=[];fillColor=none;strokeColor=none;rounded=0;fontSize=18;" vertex="1" parent="vUOnrfQwN-WBCog0Yk4K-33">
          <mxGeometry x="19" y="105" width="60" height="30" as="geometry" />
        </mxCell>
        <mxCell id="vUOnrfQwN-WBCog0Yk4K-27" value="&lt;font style=&quot;font-size: 12px&quot;&gt;Ronde 2&lt;/font&gt;" style="text;html=1;resizable=0;autosize=1;align=center;verticalAlign=middle;points=[];fillColor=none;strokeColor=none;rounded=0;fontSize=18;" vertex="1" parent="vUOnrfQwN-WBCog0Yk4K-33">
          <mxGeometry x="115" y="105" width="60" height="30" as="geometry" />
        </mxCell>
        <mxCell id="vUOnrfQwN-WBCog0Yk4K-28" value="&lt;font style=&quot;font-size: 12px&quot;&gt;Ronde 3&lt;/font&gt;" style="text;html=1;resizable=0;autosize=1;align=center;verticalAlign=middle;points=[];fillColor=none;strokeColor=none;rounded=0;fontSize=18;" vertex="1" parent="vUOnrfQwN-WBCog0Yk4K-33">
          <mxGeometry x="211" y="105" width="60" height="30" as="geometry" />
        </mxCell>
        <mxCell id="vUOnrfQwN-WBCog0Yk4K-29" value="&lt;font style=&quot;font-size: 13px&quot;&gt;1/12&lt;/font&gt;" style="text;html=1;resizable=0;autosize=1;align=center;verticalAlign=middle;points=[];fillColor=none;strokeColor=none;rounded=0;fontSize=18;" vertex="1" parent="vUOnrfQwN-WBCog0Yk4K-33">
          <mxGeometry x="29" y="135" width="40" height="30" as="geometry" />
        </mxCell>
        <mxCell id="vUOnrfQwN-WBCog0Yk4K-30" value="&lt;font style=&quot;font-size: 13px&quot;&gt;1/12&lt;/font&gt;" style="text;html=1;resizable=0;autosize=1;align=center;verticalAlign=middle;points=[];fillColor=none;strokeColor=none;rounded=0;fontSize=18;" vertex="1" parent="vUOnrfQwN-WBCog0Yk4K-33">
          <mxGeometry x="125" y="135" width="40" height="30" as="geometry" />
        </mxCell>
        <mxCell id="vUOnrfQwN-WBCog0Yk4K-31" value="&lt;font style=&quot;font-size: 13px&quot;&gt;1/12&lt;/font&gt;" style="text;html=1;resizable=0;autosize=1;align=center;verticalAlign=middle;points=[];fillColor=none;strokeColor=none;rounded=0;fontSize=18;" vertex="1" parent="vUOnrfQwN-WBCog0Yk4K-33">
          <mxGeometry x="221" y="135" width="40" height="30" as="geometry" />
        </mxCell>
        <mxCell id="vUOnrfQwN-WBCog0Yk4K-32" value="&lt;font style=&quot;font-size: 14px&quot;&gt;RP&lt;/font&gt;" style="text;html=1;resizable=0;autosize=1;align=center;verticalAlign=middle;points=[];fillColor=none;strokeColor=none;rounded=0;fontSize=18;" vertex="1" parent="vUOnrfQwN-WBCog0Yk4K-33">
          <mxGeometry x="227" y="10" width="30" height="30" as="geometry" />
        </mxCell>
        <mxCell id="vUOnrfQwN-WBCog0Yk4K-34" value="" style="group;fillColor=#ffffff;" vertex="1" connectable="0" parent="1">
          <mxGeometry x="110" y="280" width="290" height="170" as="geometry" />
        </mxCell>
        <mxCell id="vUOnrfQwN-WBCog0Yk4K-35" value="" style="rounded=0;whiteSpace=wrap;html=1;strokeColor=#000000;fillColor=none;" vertex="1" parent="vUOnrfQwN-WBCog0Yk4K-34">
          <mxGeometry width="290" height="170" as="geometry" />
        </mxCell>
        <mxCell id="vUOnrfQwN-WBCog0Yk4K-36" value="" style="ellipse;whiteSpace=wrap;html=1;aspect=fixed;strokeColor=#000000;fillColor=none;" vertex="1" parent="vUOnrfQwN-WBCog0Yk4K-34">
          <mxGeometry x="11" y="10" width="70" height="70" as="geometry" />
        </mxCell>
        <mxCell id="vUOnrfQwN-WBCog0Yk4K-37" value="Team 2" style="text;html=1;resizable=0;autosize=1;align=left;verticalAlign=middle;points=[];fillColor=none;strokeColor=none;rounded=0;fontSize=18;" vertex="1" parent="vUOnrfQwN-WBCog0Yk4K-34">
          <mxGeometry x="98" y="30" width="70" height="30" as="geometry" />
        </mxCell>
        <mxCell id="vUOnrfQwN-WBCog0Yk4K-38" value="" style="rounded=0;whiteSpace=wrap;html=1;strokeColor=#000000;fillColor=none;fontSize=24;" vertex="1" parent="vUOnrfQwN-WBCog0Yk4K-34">
          <mxGeometry y="100" width="98" height="70" as="geometry" />
        </mxCell>
        <mxCell id="vUOnrfQwN-WBCog0Yk4K-39" value="" style="rounded=0;whiteSpace=wrap;html=1;strokeColor=#000000;fillColor=none;fontSize=24;" vertex="1" parent="vUOnrfQwN-WBCog0Yk4K-34">
          <mxGeometry x="98" y="100" width="96" height="70" as="geometry" />
        </mxCell>
        <mxCell id="vUOnrfQwN-WBCog0Yk4K-40" value="" style="rounded=0;whiteSpace=wrap;html=1;strokeColor=#000000;fillColor=none;fontSize=24;" vertex="1" parent="vUOnrfQwN-WBCog0Yk4K-34">
          <mxGeometry x="194" y="100" width="96" height="70" as="geometry" />
        </mxCell>
        <mxCell id="vUOnrfQwN-WBCog0Yk4K-41" value="5" style="text;html=1;resizable=0;autosize=1;align=center;verticalAlign=middle;points=[];fillColor=none;strokeColor=none;rounded=0;fontSize=24;" vertex="1" parent="vUOnrfQwN-WBCog0Yk4K-34">
          <mxGeometry x="227" y="30" width="30" height="30" as="geometry" />
        </mxCell>
        <mxCell id="vUOnrfQwN-WBCog0Yk4K-42" value="&lt;font style=&quot;font-size: 12px&quot;&gt;Ronde 1&lt;/font&gt;" style="text;html=1;resizable=0;autosize=1;align=center;verticalAlign=middle;points=[];fillColor=none;strokeColor=none;rounded=0;fontSize=18;" vertex="1" parent="vUOnrfQwN-WBCog0Yk4K-34">
          <mxGeometry x="19" y="105" width="60" height="30" as="geometry" />
        </mxCell>
        <mxCell id="vUOnrfQwN-WBCog0Yk4K-43" value="&lt;font style=&quot;font-size: 12px&quot;&gt;Ronde 2&lt;/font&gt;" style="text;html=1;resizable=0;autosize=1;align=center;verticalAlign=middle;points=[];fillColor=none;strokeColor=none;rounded=0;fontSize=18;" vertex="1" parent="vUOnrfQwN-WBCog0Yk4K-34">
          <mxGeometry x="115" y="105" width="60" height="30" as="geometry" />
        </mxCell>
        <mxCell id="vUOnrfQwN-WBCog0Yk4K-44" value="&lt;font style=&quot;font-size: 12px&quot;&gt;Ronde 3&lt;/font&gt;" style="text;html=1;resizable=0;autosize=1;align=center;verticalAlign=middle;points=[];fillColor=none;strokeColor=none;rounded=0;fontSize=18;" vertex="1" parent="vUOnrfQwN-WBCog0Yk4K-34">
          <mxGeometry x="211" y="105" width="60" height="30" as="geometry" />
        </mxCell>
        <mxCell id="vUOnrfQwN-WBCog0Yk4K-45" value="&lt;font style=&quot;font-size: 13px&quot;&gt;1/12&lt;/font&gt;" style="text;html=1;resizable=0;autosize=1;align=center;verticalAlign=middle;points=[];fillColor=none;strokeColor=none;rounded=0;fontSize=18;" vertex="1" parent="vUOnrfQwN-WBCog0Yk4K-34">
          <mxGeometry x="29" y="135" width="40" height="30" as="geometry" />
        </mxCell>
        <mxCell id="vUOnrfQwN-WBCog0Yk4K-46" value="&lt;font style=&quot;font-size: 13px&quot;&gt;1/12&lt;/font&gt;" style="text;html=1;resizable=0;autosize=1;align=center;verticalAlign=middle;points=[];fillColor=none;strokeColor=none;rounded=0;fontSize=18;" vertex="1" parent="vUOnrfQwN-WBCog0Yk4K-34">
          <mxGeometry x="125" y="135" width="40" height="30" as="geometry" />
        </mxCell>
        <mxCell id="vUOnrfQwN-WBCog0Yk4K-47" value="&lt;font style=&quot;font-size: 13px&quot;&gt;1/12&lt;/font&gt;" style="text;html=1;resizable=0;autosize=1;align=center;verticalAlign=middle;points=[];fillColor=none;strokeColor=none;rounded=0;fontSize=18;" vertex="1" parent="vUOnrfQwN-WBCog0Yk4K-34">
          <mxGeometry x="221" y="135" width="40" height="30" as="geometry" />
        </mxCell>
        <mxCell id="vUOnrfQwN-WBCog0Yk4K-48" value="&lt;font style=&quot;font-size: 14px&quot;&gt;RP&lt;/font&gt;" style="text;html=1;resizable=0;autosize=1;align=center;verticalAlign=middle;points=[];fillColor=none;strokeColor=none;rounded=0;fontSize=18;" vertex="1" parent="vUOnrfQwN-WBCog0Yk4K-34">
          <mxGeometry x="227" y="10" width="30" height="30" as="geometry" />
        </mxCell>
        <mxCell id="vUOnrfQwN-WBCog0Yk4K-49" value="" style="group;fillColor=#ffffff;" vertex="1" connectable="0" parent="1">
          <mxGeometry x="430" y="280" width="290" height="170" as="geometry" />
        </mxCell>
        <mxCell id="vUOnrfQwN-WBCog0Yk4K-50" value="" style="rounded=0;whiteSpace=wrap;html=1;strokeColor=#000000;fillColor=none;" vertex="1" parent="vUOnrfQwN-WBCog0Yk4K-49">
          <mxGeometry width="290" height="170" as="geometry" />
        </mxCell>
        <mxCell id="vUOnrfQwN-WBCog0Yk4K-51" value="" style="ellipse;whiteSpace=wrap;html=1;aspect=fixed;strokeColor=#000000;fillColor=none;" vertex="1" parent="vUOnrfQwN-WBCog0Yk4K-49">
          <mxGeometry x="11" y="10" width="70" height="70" as="geometry" />
        </mxCell>
        <mxCell id="vUOnrfQwN-WBCog0Yk4K-52" value="Team 3" style="text;html=1;resizable=0;autosize=1;align=left;verticalAlign=middle;points=[];fillColor=none;strokeColor=none;rounded=0;fontSize=18;" vertex="1" parent="vUOnrfQwN-WBCog0Yk4K-49">
          <mxGeometry x="98" y="30" width="70" height="30" as="geometry" />
        </mxCell>
        <mxCell id="vUOnrfQwN-WBCog0Yk4K-53" value="" style="rounded=0;whiteSpace=wrap;html=1;strokeColor=#000000;fillColor=none;fontSize=24;" vertex="1" parent="vUOnrfQwN-WBCog0Yk4K-49">
          <mxGeometry y="100" width="98" height="70" as="geometry" />
        </mxCell>
        <mxCell id="vUOnrfQwN-WBCog0Yk4K-54" value="" style="rounded=0;whiteSpace=wrap;html=1;strokeColor=#000000;fillColor=none;fontSize=24;" vertex="1" parent="vUOnrfQwN-WBCog0Yk4K-49">
          <mxGeometry x="98" y="100" width="96" height="70" as="geometry" />
        </mxCell>
        <mxCell id="vUOnrfQwN-WBCog0Yk4K-55" value="" style="rounded=0;whiteSpace=wrap;html=1;strokeColor=#000000;fillColor=none;fontSize=24;" vertex="1" parent="vUOnrfQwN-WBCog0Yk4K-49">
          <mxGeometry x="194" y="100" width="96" height="70" as="geometry" />
        </mxCell>
        <mxCell id="vUOnrfQwN-WBCog0Yk4K-56" value="3" style="text;html=1;resizable=0;autosize=1;align=center;verticalAlign=middle;points=[];fillColor=none;strokeColor=none;rounded=0;fontSize=24;" vertex="1" parent="vUOnrfQwN-WBCog0Yk4K-49">
          <mxGeometry x="227" y="30" width="30" height="30" as="geometry" />
        </mxCell>
        <mxCell id="vUOnrfQwN-WBCog0Yk4K-57" value="&lt;font style=&quot;font-size: 12px&quot;&gt;Ronde 1&lt;/font&gt;" style="text;html=1;resizable=0;autosize=1;align=center;verticalAlign=middle;points=[];fillColor=none;strokeColor=none;rounded=0;fontSize=18;" vertex="1" parent="vUOnrfQwN-WBCog0Yk4K-49">
          <mxGeometry x="19" y="105" width="60" height="30" as="geometry" />
        </mxCell>
        <mxCell id="vUOnrfQwN-WBCog0Yk4K-58" value="&lt;font style=&quot;font-size: 12px&quot;&gt;Ronde 2&lt;/font&gt;" style="text;html=1;resizable=0;autosize=1;align=center;verticalAlign=middle;points=[];fillColor=none;strokeColor=none;rounded=0;fontSize=18;" vertex="1" parent="vUOnrfQwN-WBCog0Yk4K-49">
          <mxGeometry x="115" y="105" width="60" height="30" as="geometry" />
        </mxCell>
        <mxCell id="vUOnrfQwN-WBCog0Yk4K-59" value="&lt;font style=&quot;font-size: 12px&quot;&gt;Ronde 3&lt;/font&gt;" style="text;html=1;resizable=0;autosize=1;align=center;verticalAlign=middle;points=[];fillColor=none;strokeColor=none;rounded=0;fontSize=18;" vertex="1" parent="vUOnrfQwN-WBCog0Yk4K-49">
          <mxGeometry x="211" y="105" width="60" height="30" as="geometry" />
        </mxCell>
        <mxCell id="vUOnrfQwN-WBCog0Yk4K-60" value="&lt;font style=&quot;font-size: 13px&quot;&gt;1/12&lt;/font&gt;" style="text;html=1;resizable=0;autosize=1;align=center;verticalAlign=middle;points=[];fillColor=none;strokeColor=none;rounded=0;fontSize=18;" vertex="1" parent="vUOnrfQwN-WBCog0Yk4K-49">
          <mxGeometry x="29" y="135" width="40" height="30" as="geometry" />
        </mxCell>
        <mxCell id="vUOnrfQwN-WBCog0Yk4K-61" value="&lt;font style=&quot;font-size: 13px&quot;&gt;1/12&lt;/font&gt;" style="text;html=1;resizable=0;autosize=1;align=center;verticalAlign=middle;points=[];fillColor=none;strokeColor=none;rounded=0;fontSize=18;" vertex="1" parent="vUOnrfQwN-WBCog0Yk4K-49">
          <mxGeometry x="125" y="135" width="40" height="30" as="geometry" />
        </mxCell>
        <mxCell id="vUOnrfQwN-WBCog0Yk4K-62" value="&lt;font style=&quot;font-size: 13px&quot;&gt;1/12&lt;/font&gt;" style="text;html=1;resizable=0;autosize=1;align=center;verticalAlign=middle;points=[];fillColor=none;strokeColor=none;rounded=0;fontSize=18;" vertex="1" parent="vUOnrfQwN-WBCog0Yk4K-49">
          <mxGeometry x="221" y="135" width="40" height="30" as="geometry" />
        </mxCell>
        <mxCell id="vUOnrfQwN-WBCog0Yk4K-63" value="&lt;font style=&quot;font-size: 14px&quot;&gt;RP&lt;/font&gt;" style="text;html=1;resizable=0;autosize=1;align=center;verticalAlign=middle;points=[];fillColor=none;strokeColor=none;rounded=0;fontSize=18;" vertex="1" parent="vUOnrfQwN-WBCog0Yk4K-49">
          <mxGeometry x="227" y="10" width="30" height="30" as="geometry" />
        </mxCell>
        <mxCell id="vUOnrfQwN-WBCog0Yk4K-66" value="" style="shape=image;html=1;verticalAlign=top;verticalLabelPosition=bottom;labelBackgroundColor=#ffffff;imageAspect=0;aspect=fixed;image=https://cdn2.iconfinder.com/data/icons/essential-web-3/50/crown-king-top-win-award-128.png;strokeColor=#000000;fillColor=#ffffff;fontSize=18;" vertex="1" parent="1">
          <mxGeometry x="375" y="10" width="78" height="78" as="geometry" />
        </mxCell>
      </root>
    </mxGraphModel>
  </diagram>
  <diagram id="1hWtcMES1teE9NxFzdlK" name="Master (new round)">
    <mxGraphModel dx="1422" dy="762" grid="1" gridSize="10" guides="1" tooltips="1" connect="1" arrows="1" fold="1" page="1" pageScale="1" pageWidth="827" pageHeight="1169" math="0" shadow="0">
      <root>
        <mxCell id="CjmhfnLTp9_TX2aPHPmg-0" />
        <mxCell id="CjmhfnLTp9_TX2aPHPmg-1" parent="CjmhfnLTp9_TX2aPHPmg-0" />
        <mxCell id="DIqJciiKhVHWDpmmjQ7e-0" value="" style="rounded=0;whiteSpace=wrap;html=1;strokeColor=#000000;fillColor=#ffffff;fontSize=20;movable=0;resizable=0;rotatable=0;deletable=0;editable=0;connectable=0;" vertex="1" parent="CjmhfnLTp9_TX2aPHPmg-1">
          <mxGeometry x="10" y="20" width="800" height="490" as="geometry" />
        </mxCell>
        <mxCell id="DIqJciiKhVHWDpmmjQ7e-2" value="&lt;font style=&quot;font-size: 16px&quot;&gt;Nieuwe ronde&lt;/font&gt;" style="rounded=1;html=1;shadow=0;dashed=0;whiteSpace=wrap;fontSize=10;fillColor=#666666;align=center;strokeColor=#4D4D4D;fontColor=#ffffff;" vertex="1" parent="CjmhfnLTp9_TX2aPHPmg-1">
          <mxGeometry x="134" y="275" width="250" height="40" as="geometry" />
        </mxCell>
        <mxCell id="DIqJciiKhVHWDpmmjQ7e-22" value="&lt;span style=&quot;font-size: 27px&quot;&gt;Nog een ronde spelen?&lt;/span&gt;" style="text;html=1;strokeColor=none;fillColor=none;align=center;verticalAlign=middle;whiteSpace=wrap;rounded=0;fontSize=27;" vertex="1" parent="CjmhfnLTp9_TX2aPHPmg-1">
          <mxGeometry x="218" y="180" width="400" height="20" as="geometry" />
        </mxCell>
        <mxCell id="DIqJciiKhVHWDpmmjQ7e-24" value="&lt;span style=&quot;font-size: 16px&quot;&gt;Stop quiznight&lt;/span&gt;" style="rounded=1;html=1;shadow=0;dashed=0;whiteSpace=wrap;fontSize=10;fillColor=#666666;align=center;strokeColor=#4D4D4D;fontColor=#ffffff;" vertex="1" parent="CjmhfnLTp9_TX2aPHPmg-1">
          <mxGeometry x="444" y="275" width="250" height="40" as="geometry" />
        </mxCell>
      </root>
    </mxGraphModel>
  </diagram>
</mxfile>
